<svg xmlns="http://www.w3.org/2000/svg" width="1024" height="1024" viewBox="0 0 36 36" role="img"><title>DALKAN ATRIUM / atrium_symbol</title><desc>Exact final 36 by 36 geometry. Transparent background.</desc><defs><clipPath id="atrium-outline-5"><rect x="0" y="0" width="36" height="36" rx="3" data-role="atrium-outer"/></clipPath></defs><path d="M3 0H33A3 3 0 0 1 36 3V33A3 3 0 0 1 33 36H3A3 3 0 0 1 0 33V3A3 3 0 0 1 3 0Z M8.6 7H27.4A1.6 1.6 0 0 1 29 8.6V27.4A1.6 1.6 0 0 1 27.4 29H8.6A1.6 1.6 0 0 1 7 27.4V8.6A1.6 1.6 0 0 1 8.6 7Z" fill="#13233D" fill-rule="evenodd" data-role="atrium-frame"/><g clip-path="url(#atrium-outline-5)"><rect x="29" y="0" width="7" height="7" rx="0" fill="#C2410C" data-role="atrium-entrance"/></g></svg>